<?xml version="1.0" encoding="UTF-8"?>
<svg id="Camada_1" data-name="Camada 1" xmlns="http://www.w3.org/2000/svg" viewBox="0 0 1387.82 399.45">
  <defs>
    <style>
      .cls-1 {
        fill: #041948;
      }

      .cls-2 {
        fill: #0351dd;
      }

      .cls-3 {
        fill: #fdfdfd;
      }
    </style>
  </defs>
  <g>
    <path class="cls-1" d="M861.06,254.6l-35.31.64-28.77-44.58-22.52-.08-.05,44.67-31.15.04-.04-139.17,58.18-.03c9.63,0,18.89,1.23,27.6,4.68,10.51,4.08,18.33,11.08,23.62,21.09,10.03,25.56,3.44,54.65-24.51,63.85l32.96,48.89ZM821.74,176.43c4.95-7.79,4.96-17.23.2-24.65-4.38-4.95-10.6-7.9-17.39-7.9l-30.13-.02v40.02s30.13-.04,30.13-.04c6.49,0,12.59-2.47,17.19-7.41Z"/>
    <polygon class="cls-1" points="698.84 199.11 637.04 199.18 637 228.05 708.26 228.09 708.21 255.49 605.87 255.55 605.89 116.14 707.31 116.06 707.3 143.72 637.04 143.74 636.97 171.75 698.82 171.84 698.84 199.11"/>
    <path class="cls-1" d="M547.58,253.08c-29,10.14-60.46,3.63-84.1-16.89l17.47-23.47c10.38,9.2,21.55,15.25,34.73,17.05,13.24,1.8,26.71-2.06,26.55-13.42-.06-4.61-2.79-9.02-7.59-10.64l-20.04-6.74c-9.14-3.07-18.29-5.2-26.67-9.59-11.96-6.26-18.54-17.21-19.39-30.54-1.29-20.46,10.74-36.96,30.69-42.49,24.03-6.66,49.96-1.15,70.43,14.87l-16.61,23.51c-8.42-6.2-16.28-10.4-25.63-12.33-12.68-2.51-26.89.11-27.81,10.72-2.14,24.69,72.37,9.56,73.88,59.52.54,17.96-8.41,33.35-25.9,40.44Z"/>
    <rect class="cls-1" x="994.11" y="170.16" width="139.46" height="31.3" transform="translate(877.9586 1249.6399) rotate(-89.9963)"/>
    <path class="cls-2" d="M648.09,348.76c-10.82,14.1-25.56,12.18-39.18,12.45-2.16.04-4.46-.34-9.09-.52l-.13-59.66,26.06.17c12.53.08,23.9,8.28,27.07,20.45,2.5,9.61,1.29,19.26-4.73,27.11ZM640.54,329.26c-.59-8.82-6.07-15.13-14.37-16.35-4.47-.66-8.88-.64-13.85-.08l.04,36.08,11.78.05c10.25.05,17.12-8.98,16.4-19.71Z"/>
    <path class="cls-2" d="M1164,360.23l-14.93.26-12.84-19.19-10.13-.05-.18,19.29h-12.63s0-59.62,0-59.62l25.11.02c4.12,0,8.35.77,11.97,2.14,7.86,2.79,11.55,9.44,11.66,17.44.12,8.53-3.78,15.84-12.55,18.68l14.52,21.03ZM1140.8,329.65c5.99-.06,8.45-4.86,8.08-9.64-.34-4.44-3.6-7.54-8.72-7.58l-14.04-.12v17.49s14.68-.15,14.68-.15Z"/>
    <polygon class="cls-2" points="736.66 335.82 709.64 335.96 709.61 349.11 741.14 349.3 741.09 360.37 696.94 360.51 697.03 301 740.22 300.87 740.23 312.37 709.64 312.41 709.42 324.74 736.19 324.79 736.66 335.82"/>
    <polygon class="cls-2" points="1064.69 336.07 1037.83 335.95 1037.92 348.95 1069.11 349.25 1069.34 360.46 1024.89 360.43 1025 300.92 1068.43 301.02 1068.55 312.24 1037.82 312.25 1037.86 324.71 1064.65 324.71 1064.69 336.07"/>
    <path class="cls-2" d="M970.1,301.25c4.45-.63,8.81-.72,13.84.35l-23.91,58.9-12.47.07-24.08-59.23,12.5-.44c3.5.71,3.17,3.52,4.02,5.75l13.9,36.57,16.2-41.96Z"/>
    <path class="cls-2" d="M1255.68,301.46l-22.67,34.83-.14,25.65c-4.35-.19-7.19,0-12.57.29l-.16-25.16-22.58-35.62,14.84-.27,14.14,23.3,14.05-23.09c4.91-.75,9.49-.91,15.08.07Z"/>
    <path class="cls-2" d="M826.09,349.05c1.09,4.02.71,7.17.4,11.44h-41.5s0-59.29,0-59.29l12.56-.2.1,48.1,28.43-.05Z"/>
    <rect class="cls-2" x="868.89" y="300.88" width="13.13" height="59.89" transform="translate(-.45 1.2)"/>
    <polygon class="cls-1" points="1378.48 197.24 1316.51 197.46 1316.37 226.26 1387.82 226.46 1387.79 253.45 1285.57 253.58 1285.57 114.38 1387 114.36 1387.02 141.93 1316.4 142.01 1316.43 170.01 1378.26 170.04 1378.48 197.24"/>
    <path class="cls-1" d="M1168.66,215.19c19.03,19.37,48.35,14.95,64.59-5.38l22.01,19.45c-14.93,18.99-36.67,26.99-59.77,26.76-39.61-.39-70.89-30.23-71.91-70.14-.7-27.32,13.27-52.17,37.7-65.19,29.76-15.85,71.33-10.72,93.19,16.19l-21.61,20.98c-15.83-19.45-43.58-23.44-62.2-6.78-18.34,16.4-19.58,46.2-1.98,64.11Z"/>
    <polygon class="cls-1" points="990.47 114.76 1023.62 114.44 966.33 253.47 936.07 253.45 878.61 114.51 912.3 114.31 951.55 215.2 990.47 114.76"/>
    <rect class="cls-2" x="469.19" y="327.61" width="89.65" height="8.81"/>
    <path class="cls-3" d="M821.74,176.43c-4.61,4.94-10.7,7.4-17.19,7.41l-30.12.04v-40.02s30.13.02,30.13.02c6.78,0,13,2.95,17.39,7.9,4.76,7.42,4.75,16.85-.2,24.65Z"/>
    <rect class="cls-2" x="1284.06" y="327.63" width="88.21" height="8.78" transform="translate(-.4 1.61)"/>
  </g>
  <g>
    <path class="cls-2" d="M50.48,283.33l68.95-.25c6.67-.02,11.43-6.01,11.61-12.05.19-6.19-4.59-12.76-11.53-12.77l-110.62-.24c-5.44-.01-8.99-5.58-8.88-9.86.15-5.38,4.15-9.91,9.92-9.92l89.74-.06c.24-32.59,10.86-63.07,29.69-88.87,21.03-28.82,50.63-49.49,85.39-58.89-16.23-13.53-18.96-36.66-6.76-52.9,8.06-10.72,21.69-16.81,35.75-14.59,13.57-22.39,43.25-29.66,65.84-16.07,9.14,5.49,15.89,13.33,19.65,23.69,19.71,1.74,34.38,18.27,34.03,38.26-.27,15.08-8.88,28.04-22.97,34.43,51.7,29.97,82.21,86.27,78.88,145.61-3.42,60.84-41.06,114.77-96.94,139.02-16.29,7.07-33.2,10.86-51.07,11.49-66.22,2.33-129.51-36.2-157.35-96.19l-63.57-.12c-5.26,0-8.76-5.02-8.9-9.38-.16-4.94,3.36-10.32,9.15-10.34ZM316.49,100.53c-7.04-5.08-14.24-7.5-21.6-10.29-2.04-.77-1.24-3.78-.48-4.92.96-1.46,2.99-2.45,5.01-1.44,7.6,1.98,14.41,4.9,21.72,8.23,13.81,2.31,26.97-7.83,28.37-21.99.79-8.01-2.78-15.75-8.45-20.43-6.16-5.08-13.99-7.07-22.52-5-2.31-20.61-21.45-34.25-41.71-29.41-12.18,2.91-21.35,11.77-25.23,24.3-9.43-4.78-19.87-4.53-28.12,1.82-7.33,5.64-11.19,15.47-8.64,25.17,2.7,10.26,11.38,17.07,22.14,18.42l-3.53,33.85c27.26-4,53.54-.03,78.18,11.26l4.85-29.59ZM194.84,213.87l104.43-55.88-38.26-19.98-57.84,29.57-49.09,25.39,40.76,20.9ZM266.79,251.14l100.76-57-37.4-19.16-102.8,55.3,39.44,20.86ZM222.78,273.18l-14.69-16.7-14.93,2.59-.07-36.97-40.51-20.82.07,110.65,109.89,61.34.04-115.31-39.44-20.53-.37,35.75ZM369.99,311.07l-.15-108.56-99.04,55.79.04,113.41,99.15-60.64Z"/>
    <path class="cls-2" d="M78.85,213.14h-34.68c-5.56.01-9.07-5.66-8.77-10.59.33-5.43,5.1-9.48,10.77-9.44l33.48.23c5.19.04,8.68,5.18,8.6,9.84s-3.72,9.95-9.4,9.95Z"/>
    <path class="cls-3" d="M316.49,100.53l-4.85,29.59c-24.64-11.29-50.93-15.26-78.18-11.26l3.53-33.85c-10.76-1.35-19.44-8.16-22.14-18.42-2.55-9.7,1.3-19.52,8.64-25.17,8.25-6.35,18.7-6.61,28.12-1.82,3.88-12.53,13.05-21.39,25.23-24.3,20.26-4.84,39.4,8.8,41.71,29.41,8.53-2.08,16.35-.09,22.52,5,5.68,4.68,9.24,12.42,8.45,20.43-1.4,14.16-14.56,24.3-28.37,21.99-7.31-3.33-14.11-6.25-21.72-8.23-2.03-1.01-4.05-.01-5.01,1.44-.76,1.14-1.56,4.14.48,4.92,7.36,2.78,14.56,5.2,21.6,10.29Z"/>
    <g>
      <polygon class="cls-3" points="222.78 273.18 223.15 237.43 262.59 257.96 262.54 373.27 152.66 311.93 152.59 201.28 193.1 222.1 193.16 259.07 208.09 256.47 222.78 273.18"/>
      <polygon class="cls-3" points="369.99 311.07 270.84 371.71 270.8 258.3 369.84 202.52 369.99 311.07"/>
      <polygon class="cls-3" points="194.84 213.87 154.08 192.97 203.17 167.58 261.01 138.01 299.28 157.99 194.84 213.87"/>
      <polygon class="cls-3" points="266.79 251.14 227.35 230.28 330.14 174.98 367.55 194.14 266.79 251.14"/>
    </g>
  </g>
</svg>