<svg width="720" height="220" viewBox="0 0 720 220" fill="none" xmlns="http://www.w3.org/2000/svg" role="img" aria-labelledby="title desc">
  <title id="title">Service Delivery</title>
  <desc id="desc">Logo oficial do Service Delivery</desc>
  <g>
    <rect x="32" y="36" width="148" height="148" rx="34" fill="#0F172A"/>
    <path d="M68 82H146L137.8 124.5H76.2L68 82Z" fill="#22C55E"/>
    <path d="M87.5 135.5H128.5V149.5H87.5V135.5Z" fill="#22C55E"/>
    <path d="M151 67C169.2 67 184 81.8 184 100C184 118.2 169.2 133 151 133H143.5L150.2 98.2H116.5C117.4 80.8 132.4 67 151 67Z" fill="#16A34A"/>
    <path d="M71 164H148" stroke="#22C55E" stroke-width="10" stroke-linecap="round"/>
  </g>
  <g fill="#0F172A">
    <text x="216" y="104" font-family="Inter, ui-sans-serif, system-ui, -apple-system, BlinkMacSystemFont, 'Segoe UI', sans-serif" font-size="52" font-weight="800" letter-spacing="-1.6">Service</text>
    <text x="216" y="158" font-family="Inter, ui-sans-serif, system-ui, -apple-system, BlinkMacSystemFont, 'Segoe UI', sans-serif" font-size="52" font-weight="800" letter-spacing="-1.6">Delivery</text>
  </g>
  <path d="M514 68H640" stroke="#22C55E" stroke-width="12" stroke-linecap="round"/>
  <path d="M514 110H684" stroke="#22C55E" stroke-width="12" stroke-linecap="round"/>
  <path d="M514 152H620" stroke="#22C55E" stroke-width="12" stroke-linecap="round"/>
</svg>
